{
    "asset": {
        "version": "2.0",
        "generator": "Open Asset Import Library (assimp v5.0.5eb040c7)"
    },
    "accessors": [
        {
            "bufferView": 0,
            "byteOffset": 0,
            "componentType": 5126,
            "count": 24,
            "type": "VEC3",
            "max": [
                1.0000004768371583,
                1.0000003576278687,
                1.0
            ],
            "min": [
                -1.0000003576278687,
                -1.0000005960464478,
                -1.0
            ]
        },
        {
            "bufferView": 1,
            "byteOffset": 0,
            "componentType": 5126,
            "count": 24,
            "type": "VEC3",
            "max": [
                1.0,
                1.0,
                1.0
            ],
            "min": [
                -1.0,
                -1.0,
                -1.0
            ]
        },
        {
            "bufferView": 2,
            "byteOffset": 0,
            "componentType": 5125,
            "count": 36,
            "type": "SCALAR",
            "max": [
                23
            ],
            "min": [
                0
            ]
        }
    ],
    "buffers": [
        {
            "byteLength": 720,
            "uri": "result.bin"
        }
    ],
    "bufferViews": [
        {
            "buffer": 0,
            "byteOffset": 0,
            "byteLength": 288,
            "target": 34962
        },
        {
            "buffer": 0,
            "byteOffset": 288,
            "byteLength": 288,
            "target": 34962
        },
        {
            "buffer": 0,
            "byteOffset": 576,
            "byteLength": 144,
            "target": 34963
        }
    ],
    "materials": [
        {
            "name": "Material",
            "pbrMetallicRoughness": {
                "baseColorFactor": [
                    0.800000011920929,
                    0.00621747924014926,
                    0.800000011920929,
                    1.0
                ],
                "metallicFactor": 0.0,
                "roughnessFactor": 0.9019804000854492
            }
        }
    ],
    "meshes": [
        {
            "name": "Cube",
            "primitives": [
                {
                    "mode": 4,
                    "material": 0,
                    "indices": 2,
                    "attributes": {
                        "POSITION": 0,
                        "NORMAL": 1
                    }
                }
            ]
        }
    ],
    "nodes": [
        {
            "name": "RootNode",
            "children": [
                1,
                2,
                3
            ]
        },
        {
            "name": "Cube",
            "matrix": [
                4.999997615814209,
                0.0,
                0.0,
                0.0,
                0.0,
                -8.146030268108007e-7,
                -4.999997615814209,
                0.0,
                0.0,
                5.0,
                -8.146034247147327e-7,
                0.0,
                0.0,
                5.0,
                0.0,
                1.0
            ],
            "mesh": 0
        },
        {
            "name": "Lamp",
            "matrix": [
                -29.086467742919923,
                -5.518903732299805,
                -95.51712036132813,
                0.0,
                56.639312744140628,
                79.46723937988281,
                -21.839115142822267,
                0.0,
                77.11009979248047,
                -60.45246887207031,
                -19.988338470458986,
                0.0,
                407.6245422363281,
                590.38623046875,
                -100.54539489746094,
                1.0
            ]
        },
        {
            "name": "Camera",
            "matrix": [
                -65.15583038330078,
                -44.527137756347659,
                -61.417030334472659,
                0.0,
                -32.401336669921878,
                89.5395736694336,
                -30.542089462280275,
                0.0,
                68.59205627441406,
                -0.000011920928045583424,
                -72.76763916015625,
                0.0,
                748.1131591796875,
                534.3665161132813,
                650.7639770507813,
                1.0
            ]
        }
    ],
    "scenes": [
        {
            "nodes": [
                0
            ]
        }
    ],
    "scene": 0
}